PathFileType	4	(X/Y/Z)	C:/Users/beibeiliu/ov580/test_trc/User3\sequence.37_training_dense_left.trc
DataRate	CameraRate	NumFrames	NumMarkers	Units	OrigDataRate	OrigDataStartFrame	OrigNumFrames
120	120	23	19	mm	120	138	274
Frame#	Time	ThumbCMC			ThumbMCP			ThumbIP			ThumbTip			IndexMCP			IndexPIP			IndexTip			MiddleMCP			MiddlePIP			MiddleTip			RingMCP			RingPIP			RingTip			PinkyMCP			PinkyPIP			PinkyTip			BackHand1			BackHand2			BackHand3	
		X0	Y0	Z0	X1	Y1	Z1	X2	Y2	Z2	X3	Y3	Z3	X4	Y4	Z4	X5	Y5	Z5	X6	Y6	Z6	X7	Y7	Z7	X8	Y8	Z8	X9	Y9	Z9	X10	Y10	Z10	X11	Y11	Z11	X12	Y12	Z12	X13	Y13	Z13	X14	Y14	Z14	X15	Y15	Z15	X16	Y16	Z16	X17	Y17	Z17	X18	Y18	Z18	
137	1.14167	-127.346	-20.7281	-1.73198	-108.581	-21.5666	-25.4408	-98.2564	-16.3246	-54.3548	-93.2659	-15.4394	-78.4318	-130.304	26.1914	-54.9827	-120.904	39.9613	-86.4525	-113.286	22.8361	-111.219	-151.727	28.4157	-63.868	-146.849	39.2102	-98.8361	-142.322	12.3555	-125.674	-172.423	16.9391	-65.8187	-170.285	22.6824	-96.5416	-156.33	-0.740131	-119.901	-185.821	2.10729	-61.3847	-184.625	5.97433	-88.9544	-174.387	-6.58698	-108.317	-177.336	4.24965	-20.4617	-185.439	-5.91552	4.72906	-148.625	7.23124	-2.59942	
138	1.15	-125.485	-30.8192	-7.54527	-107.974	-35.7208	-32.0673	-90.0047	-36.5936	-61.3246	-82.7855	-42.3008	-80.8099	-132.64	6.86479	-74.6123	-128.42	16.0041	-105.645	-121.161	6.40988	-133.499	-159.441	11.9158	-80.5832	-157.031	19.5188	-112.272	-156.794	8.58988	-144.527	-176.558	-1.09352	-75.0206	-177.822	5.27321	-105.595	-180.078	-7.85734	-133.137	-190.368	-13.6901	-68.3752	-197.869	-10.546	-93.7067	-195.241	-16.6079	-115.119	-180.538	-4.28933	-33.5481	-182.872	-10.2973	-0.21264	-146.813	-2.29814	-17.2948	
139	1.15833	-122.219	-38.203	-15.4748	-104.836	-47.0298	-37.5844	-91.2209	-54.7041	-62.1123	-82.6622	-62.7322	-77.9893	-134.47	-16.03	-87.4063	-130.03	-12.1686	-117.419	-130.451	-16.3511	-140.511	-166.579	-8.8069	-92.0628	-164.558	-4.05478	-116.655	-164.881	-5.97117	-150.535	-184.05	-20.0121	-84.3733	-189.732	-15.8305	-112.618	-191.131	-21.2103	-139.883	-199.068	-32.6709	-66.5639	-207.611	-28.8714	-90.4325	-212.367	-32.8865	-116.882	-180.63	-17.5928	-34.8714	-184.065	-14.3503	-10.9776	-151.005	-13.888	-23.4983	
140	1.16667	-126.149	-46.7013	-19.0963	-106.472	-58.2317	-36.6349	-90.7525	-68.9724	-60.343	-78.4028	-79.6608	-78.2983	-142.745	-36.725	-93.8789	-137.919	-35.5755	-123.1	-137.131	-38.9626	-145.821	-167.499	-30.1771	-94.3395	-170.386	-25.7246	-122.606	-170.634	-25.9946	-157.021	-187.146	-36.1026	-86.7314	-192.677	-33.4685	-115.404	-197	-36.3007	-140.49	-204.48	-45.3732	-69.7114	-212.797	-43.6882	-90.8068	-216	-44.8438	-112.298	-183.428	-28.5865	-39.9994	-183.506	-22.3547	-9.88618	-149.274	-22.56	-32.4208	
141	1.175	-126.516	-54.8651	-18.4392	-111.089	-68.3172	-37.8495	-91.104	-79.5376	-57.5409	-83.6956	-91.3091	-71.859	-143.114	-52.0899	-92.5737	-140.096	-53.1329	-119.106	-136.682	-57.412	-147.75	-172.164	-43.3304	-95.5628	-169.239	-42.4497	-128.514	-171.356	-44.1086	-156.67	-193.921	-47.3016	-89.2468	-198.148	-47.4284	-112.106	-203.664	-49.6361	-136.603	-209.719	-52.8392	-71.6061	-216.06	-53.5878	-88.1452	-221.834	-53.6773	-114.977	-186.242	-37.3523	-45.2414	-186.679	-27.3552	-16.7244	-154.445	-33.6156	-32.6951	
142	1.18333	-127.564	-60.6553	-15.0467	-112.665	-75.0663	-35.9687	-95.5469	-88.9906	-56.5553	-86.75	-101.578	-71.605	-147.171	-60.1592	-91.4049	-146.089	-63.42	-119.707	-143.941	-69.0367	-143.002	-172.256	-53.8614	-97.8918	-175.622	-54.4271	-124.845	-178.958	-59.502	-158.015	-192.824	-56.8324	-85.8358	-200.547	-57.5666	-110.539	-201.227	-61.1944	-140.501	-213.374	-60.3675	-69.7185	-216.375	-62.1498	-88.4428	-226.987	-62.7803	-110.065	-187.402	-42.6046	-42.4815	-190.285	-31.9135	-16.3384	-157.429	-38.5124	-31.4355	
143	1.19167	-130.855	-63.9139	-15.8118	-116.646	-79.7514	-35.1205	-98.8003	-93.3095	-54.1222	-89.1141	-106.558	-69.8909	-150.102	-66.834	-90.4984	-147.693	-69.8664	-116.957	-145.446	-77.6568	-141.878	-178.8	-59.2698	-97.4413	-179.578	-62.76	-125.271	-178.259	-69.3718	-156.409	-196.854	-62.6884	-83.2743	-203.503	-64.7556	-111.847	-205.843	-69.0446	-133.189	-215.036	-67.6019	-63.3219	-219.103	-69.0036	-86.6287	-229.325	-72.371	-111.283	-188.771	-45.9903	-42.8797	-192.789	-36.5931	-13.3595	-160.551	-44.198	-29.9279	
144	1.2	-133.308	-67.555	-13.411	-114.598	-81.9159	-34.5635	-99.9581	-96.8639	-54.075	-86.9618	-110.035	-69.2306	-152.327	-69.5468	-88.6227	-146.641	-75.763	-116.501	-145.012	-83.7687	-142.976	-179.79	-62.8187	-93.4038	-180.167	-66.7469	-120.142	-178.747	-75.3032	-154.413	-197.816	-66.2323	-86.338	-202.921	-68.2772	-105.844	-209.98	-74.4185	-135.606	-213.111	-71.672	-62.8261	-223.154	-73.4262	-86.7597	-230.508	-75.7852	-104.914	-190.51	-49.3497	-39.7083	-192.797	-38.5398	-11.2109	-159.815	-47.4949	-31.2006	
145	1.20833	-132.801	-69.9702	-15.9146	-117.336	-84.8318	-32.9716	-102.179	-100.86	-54.3392	-90.9632	-113.672	-67.4345	-154.36	-72.2853	-91.4648	-150.754	-77.1533	-114.411	-148.454	-85.1883	-137.71	-182.339	-64.9696	-91.431	-183.303	-68.6795	-119.171	-181.371	-77.1228	-154.518	-198.201	-67.6985	-80.0566	-206.525	-70.0133	-106.696	-210.841	-77.918	-134.398	-219.332	-69.9063	-65.2033	-226.838	-74.1852	-83.626	-234.437	-79.1688	-105.404	-195.32	-51.8651	-36.3366	-195.72	-39.8108	-9.41348	-160.694	-48.5873	-26.9738	
146	1.21667	-139.594	-70.063	-13.5226	-121.861	-85.8731	-32.2857	-101.52	-100.218	-48.9916	-96.5804	-114.712	-65.6659	-158.251	-71.3113	-89.7722	-150.664	-77.823	-112.549	-150.841	-88.4459	-142.08	-180.751	-63.2766	-90.8568	-184.327	-68.5654	-119.354	-184.294	-79.2875	-150.152	-201.26	-65.8428	-83.0182	-208.044	-69.6181	-109.558	-213.455	-77.8695	-129.617	-220.456	-71.3248	-63.3693	-225.193	-73.8886	-83.8388	-232.163	-80.6961	-107.426	-196.145	-51.3944	-34.7835	-196.808	-40.2419	-9.49591	-165.174	-45.4277	-26.3747	
147	1.225	-138.965	-69.0383	-14.2337	-119.175	-84.0704	-30.6225	-109.058	-99.6882	-52.0915	-95.7155	-113.834	-66.6564	-156.247	-69.3941	-87.7556	-153.598	-77.9495	-113.554	-152.97	-90.1093	-136.795	-185.91	-62.6523	-91.7608	-184.968	-68.081	-118.049	-186.264	-81.7927	-147.414	-204.943	-65.2229	-79.7276	-207.251	-70.592	-107.5	-215.89	-82.6951	-132.278	-223.055	-68.9882	-62.8942	-226.635	-75.8978	-86.7875	-234.236	-85.9484	-107.638	-200.108	-49.5702	-36.22	-195.251	-39.3317	-4.07844	-162.18	-46.2208	-24.2521	
148	1.23333	-137.94	-65.2082	-10.7304	-122.018	-82.2817	-32.525	-110.874	-97.9712	-51.9732	-100.156	-114.119	-67.0559	-160.413	-67.24	-85.9236	-158.767	-77.8541	-112.802	-159.507	-95.6731	-136.061	-183.387	-61.154	-90.0022	-185.579	-70.6247	-118.896	-191.438	-89.9419	-146.018	-206.868	-64.4649	-80.4346	-208.696	-72.1801	-105.833	-211.535	-90.3459	-129.901	-221.631	-69.0815	-62.1548	-226.252	-77.4895	-86.0276	-233.485	-93.335	-105.471	-200.104	-47.041	-34.9478	-194.174	-35.9784	-2.30343	-165.099	-42.587	-24.2397	
149	1.24167	-141.262	-62.2931	-9.59146	-121.71	-79.5016	-28.0404	-111.88	-96.9494	-54.3278	-108.054	-112.247	-71.724	-160.99	-66.8329	-88.707	-160.959	-78.6108	-110.073	-158.333	-104.123	-130.255	-183.368	-61.231	-87.2312	-187.621	-73.1409	-115.457	-188.201	-102.218	-141.768	-202.447	-64.1215	-79.2502	-209.338	-76.8058	-104.52	-214.358	-96.3474	-121.204	-220.829	-68.619	-59.0853	-228.748	-78.8137	-80.2356	-231.768	-101.049	-97.6708	-201.587	-42.3526	-32.4215	-199.501	-34.3307	-1.39886	-163.263	-38.1331	-21.9285	
150	1.25	-142.556	-58.1431	-10.1243	-125.343	-76.5213	-30.7388	-114.532	-91.6205	-49.5094	-110.521	-107.936	-67.8184	-161.498	-64.5274	-83.127	-156.004	-83.0297	-108.621	-160.717	-106.697	-121.791	-187.035	-62.4839	-88.1325	-188.762	-81.8517	-113.607	-186.918	-107.536	-129.156	-200.845	-64.6247	-79.7697	-207.845	-81.6071	-100.794	-210.011	-106.21	-113.967	-223.636	-67.3261	-59.6081	-226.546	-84.5067	-79.0112	-229.264	-108.052	-92.6167	-199.122	-38.5506	-27.5419	-198.391	-31.6028	-0.596786	-164.831	-33.0014	-19.9024	
151	1.25833	-138.602	-55.0553	-7.33823	-129.342	-72.1732	-27.4198	-116.633	-89.6474	-51.8302	-118.784	-104.874	-67.8134	-160.603	-62.5802	-79.4722	-157.422	-82.9184	-102.313	-159.444	-110.474	-113.689	-186.443	-60.938	-82.5054	-186.604	-81.1965	-108.72	-184.878	-114.488	-121.913	-203.765	-64.4877	-77.4829	-206.528	-83.6643	-96.6639	-208.78	-107.518	-106.485	-220.386	-67.227	-59.12	-227.179	-85.1937	-75.2123	-227.749	-108.214	-83.2491	-202.881	-34.8729	-29.1016	-201.274	-28.1557	1.31603	-169.578	-31.9496	-19.9258	
152	1.26667	-141.772	-53.895	-3.41892	-128.389	-70.633	-20.0722	-118.165	-87.0197	-44.9164	-118.76	-102.197	-63.203	-158.608	-62.5106	-78.509	-154.525	-83.5481	-99.2529	-157.337	-107.807	-108.748	-185.725	-59.3041	-82.2437	-183.268	-80.2449	-105.424	-184.829	-113.216	-115.191	-202.582	-61.178	-72.3051	-207.241	-80.5851	-92.5995	-208.356	-112.476	-101.793	-225.199	-65.4904	-56.0904	-224.241	-84.522	-73.6582	-223.449	-109.783	-78.9412	-202.038	-33.4885	-23.3779	-198.759	-24.9308	3.90192	-169.565	-29.3905	-13.6136	
153	1.275	-147.21	-54.6138	1.31796	-128.709	-70.862	-18.1516	-124.631	-86.3587	-42.6984	-122.008	-101.414	-58.6488	-164.468	-59.6012	-72.7472	-157.146	-82.6605	-98.4891	-161.187	-109.183	-106.819	-184.371	-59.1683	-82.2135	-186.446	-80.1339	-102.307	-182.517	-114.431	-111.107	-208.306	-60.4428	-68.4327	-209.017	-82.5582	-92.2116	-206.962	-108.475	-98.2304	-223.199	-65.0868	-54.083	-228.643	-86.3529	-72.0446	-226.167	-109.343	-76.9805	-206.669	-34.4988	-24.1246	-204.748	-25.9423	9.1722	-172.307	-28.7235	-8.58522	
154	1.28333	-151.752	-58.0889	4.18358	-131.757	-74.474	-17.0476	-124.248	-90.5194	-42.9833	-128.263	-103.477	-58.9137	-164.79	-61.5842	-74.8133	-164.989	-80.5295	-96.3551	-164.75	-105.058	-106.36	-191.955	-60.1419	-77.4041	-188.139	-80.8137	-100.86	-187.123	-117.482	-110.032	-207.2	-62.1647	-65.939	-213.919	-85.1643	-89.9501	-212.399	-112.187	-96.9378	-230.089	-66.6213	-50.3474	-230.057	-85.0944	-71.9612	-231.267	-108.382	-75.9121	-207.566	-36.7727	-18.9936	-209.005	-30.6577	12.9211	-174.708	-34.6317	-8.23664	
155	1.29167	-156.422	-64.8812	9.54292	-143.105	-81.195	-15.6223	-130.286	-96.2134	-37.9179	-128.152	-110.465	-59.4459	-169.461	-65.7161	-68.6837	-166.929	-83.0462	-96.3978	-169.442	-108.333	-108.985	-195.85	-63.5493	-74.9104	-193.826	-86.8649	-101.399	-196.102	-117.336	-110.841	-213.122	-66.6568	-65.22	-220.857	-84.2633	-88.0326	-219.016	-113.91	-98.2455	-233.96	-71.5579	-51.6978	-239.976	-88.2232	-68.8749	-240.009	-110.733	-78.6874	-211.88	-42.0227	-16.6962	-211.892	-34.8637	15.2205	-182.742	-38.8934	-2.76681	
156	1.3	-162.196	-75.7201	8.14355	-149.927	-90.9151	-12.177	-136.032	-107.128	-36.3697	-131.495	-122.278	-52.3175	-182.609	-75.5619	-69.6826	-179.839	-89.6456	-94.3353	-180.434	-113.513	-109.061	-206.31	-72.6718	-75.1575	-205.844	-90.9315	-98.9294	-209.026	-124.225	-112.81	-225.966	-74.5907	-64.8825	-225.698	-92.0395	-87.8809	-230.34	-119.837	-99.056	-239.785	-78.5964	-44.3062	-246.727	-91.9348	-65.0288	-253.911	-115.31	-77.7546	-219.612	-52.5963	-15.4264	-216.831	-45.257	14.4868	-189.157	-50.6547	-5.20888	
157	1.30833	-167.781	-87.7911	14.1372	-157.777	-106.032	-4.56997	-145.021	-123.639	-30.1509	-143.642	-138.278	-47.4126	-187.658	-89.5437	-64.2926	-188.65	-102.682	-89.2748	-190.179	-126.011	-108.812	-216.643	-85.3391	-66.9643	-215.909	-103.691	-95.6773	-223.223	-136.308	-112.337	-236.692	-87.9767	-58.2043	-238.151	-103.321	-81.7857	-244.706	-130.047	-96.8081	-252.116	-89.8511	-41.364	-257.925	-102.516	-59.9204	-260.951	-124.763	-73.5609	-230.056	-63.9989	-12.6968	-226.612	-55.2186	17.5171	-191.767	-63.1218	-0.158943	
158	1.31667	-179.482	-106.107	17.3591	-164.879	-125.89	-1.0967	-157.308	-142.939	-19.0834	-150.044	-158.927	-34.1837	-200.604	-109.535	-59.4668	-200.248	-123.016	-84.4706	-203.913	-141.418	-103.086	-224.517	-106.105	-65.2127	-227.39	-120.099	-86.5069	-235.321	-148.374	-105.686	-245.979	-106.437	-54.7061	-248.623	-120.485	-75.0363	-258.001	-141.345	-89.8457	-262.947	-106.683	-34.6976	-271.757	-118.771	-50.0178	-276.906	-141.223	-66.1806	-236.115	-80.9143	-3.50394	-234.599	-69.3177	22.9919	-200.747	-79.7782	2.97047	
159	1.325	-182.031	-114.406	23.5731	-167.778	-136.302	2.98519	-158.494	-155.619	-16.6888	-152.582	-172.614	-29.0039	-201.686	-121.269	-52.4278	-203.587	-135.869	-82.7646	-209.138	-152.275	-97.3457	-231.408	-116.452	-57.168	-235.94	-134.171	-83.6556	-239.556	-162.28	-102.547	-251.3	-117.932	-47.0277	-252.833	-132.55	-70.7169	-260.908	-155.376	-86.0233	-265.162	-118.127	-29.748	-272.861	-132.085	-46.6085	-279.634	-148.795	-61.499	-241.452	-88.7671	-1.2956	-238.907	-77.832	23.5177	-208.406	-89.2932	4.93155	
